<svg xmlns="http://www.w3.org/2000/svg" viewBox="0 0 106.27 69.44"><defs><style>.cls-1,.cls-3,.cls-6{fill:none;}.cls-1,.cls-3,.cls-4,.cls-5{stroke:#c1272d;}.cls-1,.cls-3,.cls-4,.cls-5,.cls-6,.cls-7{stroke-miterlimit:10;}.cls-1{stroke-width:0.51px;}.cls-2{font-size:60px;font-family:EdwardianScriptITC, Edwardian Script ITC;}.cls-2,.cls-4,.cls-5{fill:#c1272d;}.cls-3{stroke-width:0.53px;}.cls-4,.cls-6{stroke-width:0.25px;}.cls-5{stroke-width:0.56px;}.cls-6,.cls-7{stroke:#000;}.cls-7{stroke-width:0.56px;}</style></defs><title>Asset 3</title><g id="Layer_2" data-name="Layer 2"><g id="Layer_1-2" data-name="Layer 1"><path class="cls-1" d="M90.43,31.39a64.49,64.49,0,0,1-5.74,7.25,48.52,48.52,0,0,1-6.43,5.86"/><text class="cls-2" transform="translate(0 49.2)">N</text><text class="cls-2" transform="translate(46.71 49.2)">a</text><text class="cls-2" transform="translate(67.46 49.75)">s</text><text class="cls-2" transform="translate(79.37 49.75)">h</text><path class="cls-3" d="M43.66,49.45c-.59.5-1.12.74-1.32.57s0-.8.12-1.13a3.79,3.79,0,0,1,2.09-1.81c.72-.28,8.51-3.3,13-6.63a11.9,11.9,0,0,0,3.81-4.37,11.14,11.14,0,0,0,.81-2.35"/><path class="cls-4" d="M27.57,28.73a2.41,2.41,0,0,1,.61,1.1,3.16,3.16,0,0,1,0,1.7s0,0,0,0,0,.2-.21.47a7.25,7.25,0,0,0,.4-.88c0-.06,0-.1.16-.43l.3-.85c.22-.61.71-2.08,1.34-4.06-1.8.88-3.28,1.52-4.34,1.95h0a9.25,9.25,0,0,0-1.84.82C24.08,28.72,26.47,27.72,27.57,28.73Z"/><path class="cls-4" d="M103.4,40.56a2.46,2.46,0,0,1,.61,1.1,3.26,3.26,0,0,1,0,1.7h0s0,.19-.21.47a8,8,0,0,0,.4-.89c0-.05,0-.1.15-.42,0,0,.17-.45.31-.86.21-.6.7-2.08,1.33-4.05-1.79.87-3.27,1.51-4.33,1.94h0a9.62,9.62,0,0,0-1.84.82C99.91,40.55,102.3,39.56,103.4,40.56Z"/><path class="cls-5" d="M103.37,15.82a2.44,2.44,0,0,0-1.49-1.32c-1.09-.21-2.08.79-2.45,1.17a13.54,13.54,0,0,0-1.38,1.82c-.1.16-.34.54-1.22,2.15L96,21.22l.84,3.08a37.24,37.24,0,0,1,1.76-3.91s.13-.19.27-.42.19-.36.32-.55c.27-.43.35-.39.4-.56s-.14-.42-.2-.86a1.73,1.73,0,0,1,.31-1.18,1.64,1.64,0,0,1,.77-.56,1.59,1.59,0,0,1,1.22.13l.28.28a1.73,1.73,0,0,1,.31.44,1.49,1.49,0,0,1,.17.6,1.35,1.35,0,0,1-.21.78,1.55,1.55,0,0,1-.54.57,1.36,1.36,0,0,1-.67.27c-.21,0-.21,0-.39,0a1.51,1.51,0,0,0-.73.45,4.71,4.71,0,0,0-.39.39,5.41,5.41,0,0,1-.36.5l-.29.33a18.87,18.87,0,0,0-1.94,3.57c-.17.39-.4.93-.66,1.59l-2.41,2.47c2.33-2.13,4.17-3.79,5.61-5.05.17-.15.9-.9,2.36-2.39a5.92,5.92,0,0,0,1.41-1.89,4.76,4.76,0,0,0,.41-1.67A3.23,3.23,0,0,0,103.37,15.82Z"/><circle class="cls-6" cx="100.89" cy="17.77" r="1.38"/><rect class="cls-7" x="99.5" y="18.92" width="0.07" height="1.71" transform="translate(26.92 -51.11) rotate(33.07)"/></g></g></svg>