<svg height="512pt" viewBox="-66 0 512 512" width="512pt" xmlns="http://www.w3.org/2000/svg"><path d="m374.851562 114.226562-109.828124-109.832031c-2.816407-2.8125-6.628907-4.394531-10.609376-4.394531h-239.414062c-8.285156 0-15 6.714844-15 15v482c0 8.285156 6.714844 15 15 15h349.246094c8.285156 0 15-6.714844 15-15v-372.167969c0-3.976562-1.578125-7.792969-4.394532-10.605469zm-105.4375-63.011718 58.617188 58.617187h-58.617188zm-239.414062 430.785156v-452h209.414062v94.832031c0 8.285157 6.714844 15 15 15h94.832032v342.167969zm0 0"/><path d="m179.015625 353.691406c2.929687 2.929688 6.769531 4.394532 10.609375 4.394532 3.835938 0 7.675781-1.464844 10.605469-4.394532l57.386719-57.386718c5.859374-5.859376 5.859374-15.355469 0-21.214844-5.855469-5.859375-15.355469-5.859375-21.210938 0l-31.785156 31.78125v-110.824219c0-8.285156-6.714844-15-15-15-8.28125 0-15 6.714844-15 15v110.824219l-31.78125-31.78125c-5.859375-5.859375-15.355469-5.859375-21.214844 0-5.855469 5.859375-5.855469 15.355468 0 21.214844zm0 0"/><path d="m259.625 388.085938h-140.003906c-8.28125 0-15 6.714843-15 15 0 8.285156 6.71875 15 15 15h140.003906c8.28125 0 15-6.714844 15-15 0-8.285157-6.714844-15-15-15zm0 0"/></svg>