<svg height="512pt" viewBox="-68 0 512 512" width="512pt" xmlns="http://www.w3.org/2000/svg"><path d="m306.585938 394h-209.171876c-12.933593 0-23.414062-10.484375-23.414062-23.414062v-337.171876c0-12.929687 10.480469-23.414062 23.414062-23.414062h209.171876c12.929687 0 23.414062 10.484375 23.414062 23.414062v337.171876c0 12.929687-10.484375 23.414062-23.414062 23.414062zm0 0" fill="#72d8ff"/><path d="m106.578125 394c-5.921875-20.753906-17.042969-39.875-32.578125-55.40625v-117.605469c0-26.621093-19.058594-49.429687-45.257812-54.160156-9.761719-1.761719-18.742188 5.742187-18.742188 15.660156v319.511719h216l16.597656-10.289062c33.824219-20.957032 54.402344-57.921876 54.402344-97.710938zm0 0" fill="#feda9b"/><path d="m74 66.042969h256v271.957031h-256zm0 0" fill="#fff"/><path d="m324.324219 272.121094-24.847657 24.847656c-9.390624 9.390625-9.390624 24.609375 0 33.996094 9.386719 9.390625 24.605469 9.390625 33.996094 0l24.847656-24.847656c9.386719-9.386719 9.386719-24.605469 0-33.996094-9.390624-9.386719-24.609374-9.386719-33.996093 0zm0 0" fill="#fff"/><path d="m324.324219 206.058594-24.847657 24.847656c-9.390624 9.386719-9.390624 24.609375 0 33.996094 9.386719 9.386718 24.605469 9.386718 33.996094 0l24.847656-24.847656c9.386719-9.386719 9.386719-24.609376 0-33.996094-9.390624-9.386719-24.609374-9.386719-33.996093 0zm0 0" fill="#fff"/><path d="m324.324219 140.03125-24.847657 24.847656c-9.390624 9.386719-9.390624 24.605469 0 33.996094 9.386719 9.386719 24.605469 9.386719 33.996094 0l24.847656-24.847656c9.386719-9.390625 9.386719-24.609375 0-33.996094-9.390624-9.390625-24.609374-9.390625-33.996093 0zm0 0" fill="#fff"/><path d="m324.324219 73.964844-24.847657 24.847656c-9.390624 9.386719-9.390624 24.609375 0 33.996094 9.386719 9.386718 24.605469 9.386718 33.996094 0l24.847656-24.847656c9.386719-9.386719 9.386719-24.609376 0-33.996094-9.390624-9.386719-24.609374-9.386719-33.996093 0zm0 0" fill="#fff"/><g fill="#feda9b"><path d="m324.324219 272.121094-24.847657 24.847656c-9.390624 9.390625-9.390624 24.609375 0 33.996094 9.386719 9.390625 24.605469 9.390625 33.996094 0l24.847656-24.847656c9.386719-9.386719 9.386719-24.605469 0-33.996094-9.390624-9.386719-24.609374-9.386719-33.996093 0zm0 0"/><path d="m324.324219 206.058594-24.847657 24.847656c-9.390624 9.386719-9.390624 24.609375 0 33.996094 9.386719 9.386718 24.605469 9.386718 33.996094 0l24.847656-24.847656c9.386719-9.386719 9.386719-24.609376 0-33.996094-9.390624-9.386719-24.609374-9.386719-33.996093 0zm0 0"/><path d="m324.324219 140.03125-24.847657 24.847656c-9.390624 9.386719-9.390624 24.605469 0 33.996094 9.386719 9.386719 24.605469 9.386719 33.996094 0l24.847656-24.847656c9.386719-9.390625 9.386719-24.609375 0-33.996094-9.390624-9.390625-24.609374-9.390625-33.996093 0zm0 0"/><path d="m324.324219 73.964844-24.847657 24.847656c-9.390624 9.386719-9.390624 24.609375 0 33.996094 9.386719 9.386718 24.605469 9.386718 33.996094 0l24.847656-24.847656c9.386719-9.386719 9.386719-24.609376 0-33.996094-9.390624-9.386719-24.609374-9.386719-33.996093 0zm0 0"/><path d="m324.324219 272.121094-24.847657 24.847656c-9.390624 9.390625-9.390624 24.609375 0 33.996094 9.386719 9.390625 24.605469 9.390625 33.996094 0l24.847656-24.847656c9.386719-9.386719 9.386719-24.605469 0-33.996094-9.390624-9.386719-24.609374-9.386719-33.996093 0zm0 0"/><path d="m324.324219 206.058594-24.847657 24.847656c-9.390624 9.386719-9.390624 24.609375 0 33.996094 9.386719 9.386718 24.605469 9.386718 33.996094 0l24.847656-24.847656c9.386719-9.386719 9.386719-24.609376 0-33.996094-9.390624-9.386719-24.609374-9.386719-33.996093 0zm0 0"/><path d="m324.324219 140.03125-24.847657 24.847656c-9.390624 9.386719-9.390624 24.605469 0 33.996094 9.386719 9.386719 24.605469 9.386719 33.996094 0l24.847656-24.847656c9.386719-9.390625 9.386719-24.609375 0-33.996094-9.390624-9.390625-24.609374-9.390625-33.996093 0zm0 0"/><path d="m324.324219 73.964844-24.847657 24.847656c-9.390624 9.386719-9.390624 24.609375 0 33.996094 9.386719 9.386718 24.605469 9.386718 33.996094 0l24.847656-24.847656c9.386719-9.386719 9.386719-24.609376 0-33.996094-9.390624-9.386719-24.609374-9.386719-33.996093 0zm0 0"/></g><path d="m260.464844 199.019531c0 31.460938-25.507813 56.96875-56.972656 56.96875-31.464844 0-56.972657-25.507812-56.972657-56.96875 0-31.464843 25.507813-56.972656 56.972657-56.972656 31.464843 0 56.972656 25.507813 56.972656 56.972656zm0 0" fill="#ff5d5d"/><path d="m194 115.570312c2.628906 0 5.210938-1.070312 7.070312-2.929687 1.859376-1.859375 2.929688-4.441406 2.929688-7.070313 0-2.632812-1.070312-5.210937-2.929688-7.070312-1.859374-1.859375-4.441406-2.929688-7.070312-2.929688s-5.210938 1.070313-7.070312 2.929688c-1.859376 1.859375-2.929688 4.4375-2.929688 7.070312 0 2.628907 1.070312 5.210938 2.929688 7.070313 1.859374 1.859375 4.441406 2.929687 7.070312 2.929687zm0 0"/><path d="m201.960938 355.332031c-5.523438 0-10 4.476563-10 10 0 5.523438 4.476562 10 10 10h.074218c5.523438 0 9.964844-4.476562 9.964844-10 0-5.523437-4.515625-10-10.039062-10zm0 0"/><path d="m375.359375 157.027344c0-9.09375-3.539063-17.640625-9.96875-24.070313-3.167969-3.167969-6.8125-5.566406-10.699219-7.222656l10.699219-10.703125c6.429687-6.429688 9.96875-14.976562 9.96875-24.070312 0-9.089844-3.539063-17.636719-9.96875-24.066407-6.96875-6.972656-16.238281-10.273437-25.390625-9.921875v-23.558594c0-18.425781-14.992188-33.414062-33.414062-33.414062h-209.171876c-18.425781 0-33.414062 14.988281-33.414062 33.414062v140.65625c-8.980469-8.621093-20.476562-14.734374-33.480469-17.082031-7.582031-1.367187-15.316406.679688-21.222656 5.617188-5.910156 4.933593-9.296875 12.183593-9.296875 19.882812v279.511719c0 5.519531 4.476562 10 10 10s10-4.480469 10-10v-279.511719c0-2.40625 1.328125-3.875 2.121094-4.535156.792968-.664063 2.480468-1.710937 4.84375-1.285156 21.460937 3.875 37.035156 22.515625 37.035156 44.320312v117.605469c0 2.757812 1.117188 5.257812 2.929688 7.070312 22.292968 22.292969 34.570312 51.933594 34.570312 83.460938v8.554688c0 5.519531 4.476562 10 10 10s10-4.480469 10-10v-8.554688c0-8.519531-.777344-16.921875-2.277344-25.125h167.308594c-3.054688 32.597656-20.957031 61.707031-49.199219 79.210938l-16.601562 10.289062c-4.695313 2.90625-6.140625 9.070312-3.230469 13.765625 1.890625 3.054687 5.164062 4.734375 8.507812 4.734375 1.796876 0 3.617188-.484375 5.257813-1.5l16.601563-10.289062c18.039062-11.179688 33.027343-26.886719 43.351562-45.429688 8.699219-15.621094 13.925781-33.003906 15.359375-50.78125h.007813c18.421874 0 33.414062-14.992188 33.414062-33.414062v-32.03125c.179688-.171876.367188-.339844.542969-.515626l24.847656-24.851562c6.429687-6.429688 9.96875-14.976562 9.96875-24.066406s-3.539063-17.640625-9.96875-24.070313c-3.167969-3.167969-6.8125-5.570312-10.699219-7.222656l10.699219-10.703125c6.429687-6.429688 9.96875-14.976562 9.96875-24.070312 0-9.089844-3.539063-17.636719-9.96875-24.066407-3.160156-3.160156-6.796875-5.558593-10.675781-7.214843l10.675781-10.675782c6.429687-6.429687 9.96875-14.980468 9.96875-24.070312zm-82.953125 48.917968c3.113281 3.113282 6.726562 5.542969 10.660156 7.226563l-10.660156 10.660156c-6.429688 6.429688-9.972656 14.980469-9.972656 24.070313s3.542968 17.640625 9.972656 24.070312c3.121094 3.121094 6.742188 5.554688 10.683594 7.238282l-10.683594 10.6875c-6.429688 6.429687-9.972656 14.976562-9.972656 24.066406 0 4.921875 1.046875 9.679687 3.019531 14.03125h-201.453125v-212.425782h70c5.523438 0 10-4.476562 10-10 0-5.519531-4.476562-10-10-10h-70v-19.527343h224.105469l-15.699219 15.699219c-6.429688 6.429687-9.972656 14.976562-9.972656 24.070312 0 9.089844 3.542968 17.636719 9.972656 24.066406 3.121094 3.121094 6.742188 5.554688 10.683594 7.242188l-10.683594 10.683594c-6.429688 6.429687-9.972656 14.980468-9.972656 24.070312s3.542968 17.640625 9.972656 24.070312zm58.84375-124.910156c2.648438 2.652344 4.109375 6.175782 4.109375 9.925782s-1.460937 7.277343-4.109375 9.929687l-24.851562 24.847656c-2.648438 2.652344-6.175782 4.113281-9.925782 4.113281s-7.273437-1.460937-9.925781-4.113281c-2.652344-2.652343-4.113281-6.175781-4.113281-9.925781s1.460937-7.277344 4.113281-9.925781l24.847656-24.851563c5.472657-5.472656 14.378907-5.472656 19.855469 0zm-253.835938-61.035156h209.171876c7.394531 0 13.414062 6.019531 13.414062 13.414062v22.628907h-236v-22.628907c0-7.394531 6.015625-13.414062 13.414062-13.414062zm209.171876 364h-192.605469c-4.421875-12.820312-10.738281-24.933594-18.8125-36h220.984375c.109375 0 .214844.007812.320312.007812.109375 0 .214844-.007812.324219-.007812h3.203125v22.585938c0 7.394531-6.019531 13.414062-13.414062 13.414062zm44.664062-84.953125-24.851562 24.847656c-2.609376 2.613281-6.074219 4.0625-9.765626 4.105469h-.320312c-3.6875-.042969-7.152344-1.492188-9.765625-4.105469-2.652344-2.648437-4.113281-6.175781-4.113281-9.925781s1.460937-7.273438 4.113281-9.925781l24.847656-24.847657c2.738281-2.738281 6.332031-4.105468 9.925781-4.105468 3.597657 0 7.191407 1.367187 9.929688 4.105468 2.648438 2.648438 4.109375 6.175782 4.109375 9.925782s-1.460937 7.273437-4.109375 9.925781zm0-66.0625-24.851562 24.847656c-2.648438 2.648438-6.175782 4.109375-9.925782 4.109375s-7.273437-1.460937-9.925781-4.109375c-2.652344-2.652343-4.113281-6.179687-4.113281-9.929687s1.460937-7.273438 4.113281-9.925782l24.847656-24.847656c2.734375-2.738281 6.332031-4.105468 9.925781-4.105468s7.191407 1.367187 9.925782 4.105468c2.652344 2.652344 4.113281 6.175782 4.113281 9.925782s-1.460937 7.277343-4.109375 9.929687zm0-66.03125-24.851562 24.847656c-2.648438 2.652344-6.175782 4.113281-9.925782 4.113281s-7.273437-1.460937-9.925781-4.113281c-2.652344-2.648437-4.113281-6.175781-4.113281-9.925781s1.460937-7.273438 4.113281-9.925781l24.847656-24.847657c5.472657-5.476562 14.378907-5.476562 19.855469 0 2.648438 2.648438 4.109375 6.175782 4.109375 9.925782s-1.460937 7.273437-4.109375 9.925781zm0 0"/><path d="m203.492188 132.046875c-36.929688 0-66.972657 30.042969-66.972657 66.972656 0 36.925781 30.042969 66.96875 66.972657 66.96875 36.929687 0 66.972656-30.042969 66.972656-66.96875 0-36.929687-30.046875-66.972656-66.972656-66.972656zm0 113.941406c-25.902344 0-46.972657-21.070312-46.972657-46.972656 0-25.898437 21.070313-46.972656 46.972657-46.972656 25.898437 0 46.972656 21.074219 46.972656 46.972656 0 25.902344-21.074219 46.972656-46.972656 46.972656zm0 0"/><path d="m217.90625 178.441406-19.9375 19.9375-6.433594-6.433594c-3.90625-3.902343-10.238281-3.90625-14.140625 0-3.90625 3.90625-3.90625 10.234376 0 14.140626l13.503907 13.507812c1.875 1.875 4.417968 2.929688 7.070312 2.929688s5.195312-1.054688 7.070312-2.929688l27.011719-27.011719c3.902344-3.90625 3.902344-10.238281 0-14.140625-3.90625-3.90625-10.238281-3.90625-14.144531 0zm0 0"/><path d="m10 492c-2.628906 0-5.210938 1.066406-7.070312 2.929688-1.859376 1.859374-2.929688 4.4375-2.929688 7.070312 0 2.628906 1.070312 5.210938 2.929688 7.066406 1.859374 1.863282 4.441406 2.933594 7.070312 2.933594s5.210938-1.070312 7.070312-2.933594c1.859376-1.855468 2.929688-4.4375 2.929688-7.066406 0-2.632812-1.070312-5.210938-2.929688-7.070312-1.859374-1.863282-4.441406-2.929688-7.070312-2.929688zm0 0"/></svg>