<?xml version="1.0"?>
<svg xmlns="http://www.w3.org/2000/svg" height="512px" viewBox="-1 0 512 512" width="512px"><g><path d="m58.433594 127.136719c1.789062 1.304687 3.863281 1.929687 5.917968 1.929687 3.117188 0 6.1875-1.441406 8.160157-4.15625 15.28125-21.019531 33.925781-39.078125 55.417969-53.671875 4.601562-3.128906 5.800781-9.398437 2.671874-14.003906-3.128906-4.605469-9.398437-5.800781-14.003906-2.675781-23.417968 15.910156-43.738281 35.589844-60.390625 58.5-3.273437 4.503906-2.277343 10.808594 2.226563 14.078125zm0 0" data-original="#000000" class="active-path" data-old_color="#000000" fill="#BFBFBF"/><path d="m335.554688 213.234375v-6.773437c0-16.199219-6.082032-31.316407-17.128907-42.5625-11.03125-11.234376-25.796875-17.417969-41.574219-17.417969h-49.042968c-32.367188 0-58.703125 26.332031-58.703125 58.703125v8.050781c-15.300781 4.390625-26.53125 18.507813-26.53125 35.199219 0 16.703125 11.242187 30.828125 26.554687 35.207031 1.089844 44.949219 37.996094 81.175781 83.203125 81.175781s82.109375-36.226562 83.199219-81.175781c15.316406-4.378906 26.554688-18.503906 26.554688-35.207031 0-16.691406-11.230469-30.808594-26.53125-35.199219zm-107.746094-46.59375h49.042968c19.9375 0 35.890626 14.882813 38.246094 34.722656l-7.316406-5.558593c-.023438-.015626-.042969-.03125-.066406-.046876-13.027344-9.851562-30.695313-10.097656-43.992188-.597656l-2.964844 2.117188c-5.992187 4.28125-14.003906 4.226562-19.933593-.136719-14.410157-10.59375-34.167969-9.4375-47.238281 2.671875l-4.261719 3.1875c1.136719-20.242188 17.964843-36.359375 38.484375-36.359375zm-65.074219 81.792969c0-5.273438 2.496094-9.980469 6.371094-12.992188v25.984375c-3.875-3.011719-6.371094-7.714843-6.371094-12.992187zm152.660156 33.160156c0 13.027344-4.101562 25.878906-11.65625 36.488281-7.363281 10.347657-17.832031 18.378907-29.761719 22.75-12.414062 4.550781-26.203124 5.046875-38.917968 1.421875-12.210938-3.480468-23.214844-10.71875-31.3125-20.492187-8.238282-9.945313-13.289063-22.347657-14.289063-35.226563-.128906-1.644531-.191406-3.292968-.191406-4.941406v-53.367188l16.859375-12.617187c1.738281-1.304687 3.316406-2.84375 5.273438-3.824219 2.082031-1.042968 4.425781-1.605468 6.746093-1.699218 2.273438-.089844 4.578125.273437 6.703125 1.09375 2.097656.8125 3.890625 2.179687 5.757813 3.398437 7.941406 5.183594 17.746093 7.152344 27.070312 5.414063 5.320313-.992188 10.398438-3.164063 14.800781-6.308594 2.558594-1.828125 5.015626-3.710938 8.089844-4.617188 5.128906-1.511718 10.769532-.433594 15.019532 2.792969l19.808593 15.046875zm20.160157-20.167969v-25.984375c3.875 3.011719 6.371093 7.71875 6.371093 12.992188 0 5.277344-2.496093 9.980468-6.371093 12.992187zm0 0" data-original="#000000" class="active-path" data-old_color="#000000" fill="#BFBFBF"/><path d="m267.230469 296.234375-1.8125 1.40625c-8.183594 6.367187-19.730469 5.964844-27.449219-.957031-4.144531-3.714844-10.519531-3.367188-14.234375.777344-1.722656 1.921874-2.574219 4.324218-2.574219 6.71875-.003906 2.765624 1.128906 5.523437 3.351563 7.515624 4.992187 4.476563 10.808593 7.546876 16.933593 9.195313 3.539063.953125 7.179688 1.433594 10.824219 1.433594 8.984375 0 17.988281-2.90625 25.523438-8.769531h.003906l1.8125-1.410157c2.550781-1.984375 3.890625-4.953125 3.890625-7.957031 0-2.164062-.691406-4.34375-2.125-6.1875-3.414062-4.394531-9.75-5.183594-14.144531-1.765625zm0 0" data-original="#000000" class="active-path" data-old_color="#000000" fill="#BFBFBF"/><path d="m239.3125 250.441406c0-5.566406-4.515625-10.078125-10.082031-10.078125h-13.390625c-5.566406 0-10.078125 4.511719-10.078125 10.078125 0 5.570313 4.511719 10.082032 10.078125 10.082032h13.390625c5.566406 0 10.082031-4.511719 10.082031-10.082032zm0 0" data-original="#000000" class="active-path" data-old_color="#000000" fill="#BFBFBF"/><path d="m284.800781 240.363281h-13.386719c-5.566406 0-10.082031 4.511719-10.082031 10.078125 0 5.570313 4.515625 10.082032 10.082031 10.082032h13.386719c5.566407 0 10.082031-4.511719 10.082031-10.082032 0-5.566406-4.515624-10.078125-10.082031-10.078125zm0 0" data-original="#000000" class="active-path" data-old_color="#000000" fill="#BFBFBF"/><path d="m444.355469 191.191406c-.195313 0-.390625 0-.585938.003906-9.875-29.015624-26.449219-55.667968-48.246093-77.476562-21.824219-21.835938-48.503907-38.4375-77.554688-48.324219 0-.195312.003906-.390625.003906-.585937 0-35.734375-29.074218-64.808594-64.808594-64.808594-35.734374 0-64.808593 29.074219-64.808593 64.808594 0 .195312 0 .390625.003906.585937-28.992187 9.867188-55.628906 26.425781-77.429687 48.195313-21.867188 21.839844-38.492188 48.554687-48.382813 77.640625-34.695313 1.195312-62.546875 29.792969-62.546875 64.769531s27.851562 63.574219 62.546875 64.769531c9.902344 29.117188 26.550781 55.851563 48.453125 77.707031 21.789062 21.738282 48.398438 38.269532 77.359375 48.128907-.003906.195312-.003906.390625-.003906.585937 0 35.734375 29.074219 64.808594 64.808593 64.808594 35.734376 0 64.808594-29.074219 64.808594-64.808594 0-.195312 0-.390625-.003906-.585937 29.027344-9.878907 55.6875-26.460938 77.503906-48.273438 21.824219-21.820312 38.414063-48.488281 48.296875-77.527343.195313.003906.390625.003906.585938.003906 35.738281 0 64.808593-29.074219 64.808593-64.808594s-29.074218-64.808594-64.808593-64.808594zm-191.191407-171.03125c24.617188 0 44.648438 20.027344 44.648438 44.648438 0 24.617187-20.03125 44.648437-44.648438 44.648437-24.621093 0-44.648437-20.03125-44.648437-44.648437 0-24.621094 20.027344-44.648438 44.648437-44.648438zm-233.003906 235.839844c0-24.621094 20.027344-44.648438 44.648438-44.648438 24.617187 0 44.648437 20.027344 44.648437 44.648438s-20.03125 44.648438-44.648437 44.648438c-24.621094 0-44.648438-20.027344-44.648438-44.648438zm233.003906 235.839844c-24.621093 0-44.648437-20.027344-44.648437-44.648438 0-24.617187 20.027344-44.648437 44.648437-44.648437 24.617188 0 44.648438 20.03125 44.648438 44.648437 0 24.621094-20.03125 44.648438-44.648438 44.648438zm128.054688-107.765625c-18.859375 18.859375-41.738281 33.371093-66.65625 42.363281-8.671875-25.589844-32.917969-44.054688-61.398438-44.054688-28.484374 0-52.730468 18.464844-61.402343 44.054688-24.859375-8.972656-47.691407-23.4375-66.523438-42.230469-18.726562-18.6875-33.183593-41.332031-42.222656-66.003906 26.898437-7.886719 46.597656-32.789063 46.597656-62.203125 0-29.417969-19.699219-54.316406-46.597656-62.207031 9.027344-24.644531 23.464844-47.265625 42.160156-65.9375 18.847657-18.824219 41.699219-33.3125 66.585938-42.292969 8.671875 25.585938 32.917969 44.054688 61.402343 44.054688 28.480469 0 52.726563-18.46875 61.398438-44.054688 24.9375 9 47.832031 23.527344 66.703125 42.40625 18.839844 18.855469 33.347656 41.722656 42.335937 66.628906-25.589843 8.671875-44.054687 32.921875-44.054687 61.398438 0 28.480468 18.464844 52.730468 44.054687 61.402344-8.996093 24.929687-23.515624 47.8125-42.382812 66.675781zm63.136719-83.425781c-24.621094 0-44.648438-20.027344-44.648438-44.648438s20.027344-44.648438 44.648438-44.648438c24.621093 0 44.648437 20.027344 44.648437 44.648438s-20.027344 44.648438-44.648437 44.648438zm0 0" data-original="#000000" class="active-path" data-old_color="#000000" fill="#BFBFBF"/><path d="m253.164062 99.832031c19.3125 0 35.023438-15.710937 35.023438-35.023437s-15.710938-35.023438-35.023438-35.023438-35.023437 15.710938-35.023437 35.023438 15.710937 35.023437 35.023437 35.023437zm0-49.886719c8.195313 0 14.863282 6.667969 14.863282 14.863282 0 8.195312-6.667969 14.863281-14.863282 14.863281-8.195312 0-14.863281-6.667969-14.863281-14.863281 0-8.195313 6.667969-14.863282 14.863281-14.863282zm0 0" data-original="#000000" class="active-path" data-old_color="#000000" fill="#BFBFBF"/><path d="m461.863281 228.410156h-35.015625c-5.566406 0-10.082031 4.515625-10.082031 10.082032v35.015624c0 5.566407 4.515625 10.082032 10.082031 10.082032h35.015625c5.566407 0 10.082031-4.515625 10.082031-10.082032v-35.015624c0-5.566407-4.515624-10.082032-10.082031-10.082032zm-10.078125 35.019532h-14.859375v-14.859376h14.859375zm0 0" data-original="#000000" class="active-path" data-old_color="#000000" fill="#BFBFBF"/><path d="m253.164062 410.800781c-3.542968 0-6.824218 1.859375-8.648437 4.898438l-24.003906 40.070312c-1.867188 3.113281-1.914063 6.988281-.125 10.148438 1.789062 3.160156 5.140625 5.109375 8.769531 5.109375h48.015625c3.628906 0 6.976563-1.953125 8.769531-5.109375 1.789063-3.160157 1.742188-7.035157-.125-10.148438l-24.003906-40.070312c-1.824219-3.039063-5.105469-4.898438-8.648438-4.898438zm-6.21875 40.066407 6.21875-10.371094 6.214844 10.371094zm0 0" data-original="#000000" class="active-path" data-old_color="#000000" fill="#BFBFBF"/><path d="m72.246094 277.457031c1.96875 1.96875 4.546875 2.953125 7.125 2.953125 2.582031 0 5.160156-.984375 7.128906-2.953125 3.9375-3.9375 3.9375-10.320312 0-14.257812l-7.179688-7.179688 7.128907-7.125c3.933593-3.9375 3.933593-10.320312 0-14.257812-3.9375-3.9375-10.320313-3.9375-14.257813 0l-7.128906 7.128906-7.074219-7.078125c-3.9375-3.933594-10.316406-3.933594-14.253906 0-3.9375 3.9375-3.9375 10.320312 0 14.257812l7.074219 7.074219-7.128906 7.128907c-3.933594 3.933593-3.933594 10.316406 0 14.253906 1.96875 1.96875 4.550781 2.953125 7.128906 2.953125s5.160156-.984375 7.128906-2.953125l7.125-7.125zm0 0" data-original="#000000" class="active-path" data-old_color="#000000" fill="#BFBFBF"/><path d="m33.601562 158.046875c1.585938 3.921875 5.359376 6.300781 9.347657 6.300781 1.257812 0 2.539062-.234375 3.777343-.738281 5.160157-2.085937 7.652344-7.960937 5.5625-13.121094l-.144531-.355469c-2.085937-5.160156-7.964843-7.65625-13.121093-5.566406-5.164063 2.085938-7.65625 7.960938-5.566407 13.125zm0 0" data-original="#000000" class="active-path" data-old_color="#000000" fill="#BFBFBF"/></g> </svg>
